
<svg  xmlns="http://www.w3.org/2000/svg" viewBox="0 0 61.67 64">
  <defs>
    <style>
      .cls-1 {
        stroke-width: 0px;
      }
    </style>
  </defs>
  <g id="Layer_1-2" >
    <path class="cls-1" d="M60.32,0H1.35C.61,0,0,.57,0,1.26v61.48c0,.7.61,1.26,1.35,1.26h58.97c.75,0,1.35-.57,1.35-1.26V1.26c0-.7-.61-1.26-1.35-1.26ZM57.1,41.23v17.24c0,.7-.61,1.26-1.35,1.26H5.92c-.75,0-1.35-.57-1.35-1.26V5.53c0-.7.61-1.26,1.35-1.26h49.83c.75,0,1.35.57,1.35,1.26v35.7Z"/>
    <rect class="cls-1" x="27" y="12.5" width="7.41" height="23.42"/>
    <polygon class="cls-1" points="45.3 27.26 30.84 41.73 16.37 27.26 21.36 22.27 30.84 31.74 40.31 22.27 45.3 27.26"/>
    <rect class="cls-1" x="14.32" y="44.14" width="33.03" height="7.23"/>
  </g>
</svg>